<?xml version="1.0" standalone="no"?>
<!DOCTYPE svg PUBLIC "-//W3C//DTD SVG 20010904//EN"
 "http://www.w3.org/TR/2001/REC-SVG-20010904/DTD/svg10.dtd">
<svg version="1.0" xmlns="http://www.w3.org/2000/svg"
 width="700.000000pt" height="700.000000pt" viewBox="0 0 700.000000 700.000000"
 preserveAspectRatio="xMidYMid meet">
<metadata>
Created by potrace 1.14, written by Peter Selinger 2001-2017
</metadata>
<g transform="translate(0.000000,700.000000) scale(0.100000,-0.100000)"
fill="#000000" stroke="none">
<path d="M3378 6415 c-2 -1 -48 -5 -103 -9 -55 -3 -118 -9 -140 -12 -91 -12
-224 -36 -285 -50 -36 -9 -72 -17 -81 -19 -51 -11 -240 -73 -339 -112 -261
-103 -488 -232 -720 -412 -123 -95 -132 -103 -275 -246 -176 -176 -268 -293
-434 -550 -57 -87 -186 -357 -234 -488 -74 -199 -133 -434 -153 -600 -4 -28
-8 -54 -9 -57 -8 -13 -19 -226 -19 -360 0 -226 11 -345 50 -545 110 -575 384
-1095 794 -1505 135 -136 167 -164 280 -251 235 -181 461 -309 722 -413 125
-49 360 -121 430 -131 23 -4 45 -8 48 -10 16 -10 239 -43 350 -52 149 -12 562
-4 589 11 3 2 33 6 66 10 50 5 133 21 324 62 13 3 91 27 174 55 599 200 1090
562 1465 1082 270 373 445 820 516 1317 26 179 26 538 1 730 -13 91 -37 227
-50 280 -8 30 -16 66 -19 80 -39 201 -187 553 -331 790 -314 517 -799 939
-1344 1169 -118 49 -152 63 -161 65 -3 1 -41 13 -85 28 -207 68 -411 110 -645
133 -64 7 -377 15 -382 10z"/>
</g>
</svg>
